<?xml version="1.0" standalone="no"?>
<!DOCTYPE svg PUBLIC "-//W3C//DTD SVG 20010904//EN"
 "http://www.w3.org/TR/2001/REC-SVG-20010904/DTD/svg10.dtd">
<svg version="1.0" xmlns="http://www.w3.org/2000/svg"
 width="360.000000pt" height="366.000000pt" viewBox="0 0 360.000000 366.000000"
 preserveAspectRatio="xMidYMid meet">

<g transform="translate(0.000000,366.000000) scale(0.100000,-0.100000)"
fill="#0076C6" stroke="none">
<path d="M10 1830 l0 -1830 1795 0 1795 0 0 1830 0 1830 -1795 0 -1795 0 0
-1830z m3274 195 c140 -37 140 -36 132 -98 -13 -105 -38 -242 -45 -250 -4 -4
-38 6 -75 23 -156 71 -332 88 -423 41 -56 -28 -78 -63 -78 -122 0 -77 35 -104
258 -193 76 -31 161 -68 189 -82 77 -39 163 -126 201 -203 30 -63 32 -71 31
-186 0 -99 -4 -130 -22 -175 -86 -216 -323 -322 -649 -290 -121 12 -205 33
-295 73 -58 26 -58 26 -58 69 0 57 19 259 26 269 3 5 28 -4 57 -19 186 -100
382 -131 498 -79 67 29 102 73 102 126 0 74 -32 101 -203 170 -288 117 -392
188 -448 308 -25 54 -27 68 -27 188 0 128 1 132 34 200 64 129 190 221 345
251 113 22 327 12 450 -21z m-1209 -681 c187 -382 341 -698 343 -702 1 -4 -57
-42 -129 -84 l-131 -76 -135 271 c-74 149 -141 286 -148 304 -8 18 -17 33 -20
33 -6 0 -897 -453 -1081 -550 l-92 -48 -65 151 c-51 119 -62 154 -52 162 7 6
267 140 578 299 l565 289 -93 191 c-51 105 -105 218 -121 250 -16 33 -25 61
-19 63 6 2 62 34 125 72 63 38 120 69 125 70 6 0 163 -312 350 -695z"/>
</g>
</svg>
